<svg viewBox="0 0 3273 2054" fill="none" xmlns="http://www.w3.org/2000/svg"><g clip-path="url(#a)"><path fill="#fff" d="M0 0h3273v2054H0z"/><path fill-rule="evenodd" clip-rule="evenodd" d="M5951.36 408.492c-54.92 320.496-189.82 615.098-324.37 905.778-140.96 304.54-267.05 636.43-490.21 854.04-223.95 218.38-503.01 343.5-774.27 378.99-262.2 34.29-524.59-37.71-748.38-179.81-206.89-131.37 88.67-269-125.13-384.49-228.33-123.34-682.91-238.04-873-433-177.89-182.45-367.39-435.45-486-683.5-156.44-327.164-715.07-507.822-759.5-896-40.13-350.587 526-557.664 651.99-896.43 125.61-337.75 57.65-817.82 304.12-1033.3 271.02-236.95 628.18 53.17 939.76-54.19 240.59-82.91 419.27-353.92 646.96-492.58 283.96-172.94 601.22-578.93 868.61-430.45 290.89 161.54 155.67 792.01 346.68 1105.31 141.66 232.35 455.35 216.57 599.41 446.5 145.69 232.54 177.66 552.449 215.17 853.616 38.33 307.822 62.26 623.795 8.16 939.516z" fill="#E3F2FF"/></g><defs><clipPath id="a"><path fill="#fff" d="M0 0h3273v2054H0z"/></clipPath></defs></svg>