<svg width="132" height="46" viewBox="0 0 132 46" fill="none" xmlns="http://www.w3.org/2000/svg">
<path d="M36.6431 26.6362C36.6431 30.7365 33.0855 34.0606 28.6971 34.0606C24.3087 34.0606 20.751 30.7365 20.751 26.6362H14.3942C14.3942 34.0168 20.7979 40 28.6971 40C36.5964 40 43 34.0168 43 26.6362C43 19.2556 36.5964 13.2724 28.6971 13.2724V19.2119C33.0855 19.2119 36.6431 22.5359 36.6431 26.6362Z" fill="#004EEB"/>
<path opacity="0.5" d="M21.8548 6C21.8548 11.67 18.3381 16.2664 14 16.2664V24.4796C21.8085 24.4796 28.1385 16.206 28.1385 6H21.8548Z" fill="#004EEB"/>
<path d="M90.3248 14.531H119.811V17.1425H90.3248V14.531ZM103.675 6H106.359V38H103.675V6ZM103.098 15.8542L105.306 16.6551C104.513 18.4657 103.585 20.23 102.52 21.9478C101.456 23.6656 100.301 25.3021 99.0555 26.8575C97.81 28.3896 96.496 29.794 95.1146 31.0707C93.7558 32.3243 92.3517 33.3921 90.9023 34.2742C90.7664 34.0421 90.5739 33.7983 90.3248 33.543C90.0984 33.2644 89.8719 32.9975 89.6454 32.7421C89.419 32.4868 89.2038 32.2662 89 32.0805C90.4041 31.2913 91.7855 30.3163 93.1443 29.1556C94.5258 27.9949 95.8279 26.695 97.0513 25.2557C98.2969 23.7933 99.4292 22.2728 100.448 20.6942C101.49 19.0925 102.373 17.4791 103.098 15.8542ZM106.869 15.9238C107.616 17.4791 108.51 19.0461 109.552 20.6246C110.594 22.1799 111.738 23.6772 112.983 25.1164C114.251 26.5557 115.565 27.8556 116.924 29.0163C118.282 30.177 119.641 31.152 121 31.9412C120.796 32.1037 120.57 32.3243 120.321 32.6028C120.071 32.8582 119.834 33.1251 119.607 33.4037C119.381 33.6823 119.2 33.9492 119.064 34.2046C117.682 33.2992 116.312 32.2198 114.953 30.9663C113.595 29.6895 112.281 28.2851 111.013 26.753C109.767 25.1977 108.601 23.5727 107.514 21.8781C106.45 20.1603 105.51 18.4425 104.695 16.7247L106.869 15.9238Z" fill="#150101"/>
<path d="M72.8674 18.6819H75.7079C75.7079 18.6819 75.7079 18.763 75.7079 18.9251C75.7079 19.0872 75.7079 19.2725 75.7079 19.481C75.7079 19.6663 75.6959 19.8285 75.6719 19.9674C75.5521 22.7934 75.4202 25.1907 75.2764 27.1596C75.1566 29.1053 75.0127 30.7036 74.8449 31.9544C74.7011 33.2052 74.5213 34.1897 74.3056 34.9077C74.1139 35.6026 73.8742 36.1238 73.5865 36.4712C73.227 36.8882 72.8315 37.1777 72.4 37.3398C71.9685 37.502 71.4652 37.6178 70.8899 37.6873C70.3625 37.7105 69.6674 37.7105 68.8045 37.6873C67.9416 37.6873 67.0547 37.6641 66.1438 37.6178C66.1199 37.2935 66.024 36.8997 65.8562 36.4365C65.7124 35.9964 65.5446 35.6142 65.3528 35.2899C66.3356 35.3594 67.2345 35.3941 68.0494 35.3941C68.8644 35.4173 69.4517 35.4289 69.8112 35.4289C70.1468 35.452 70.4105 35.4289 70.6022 35.3594C70.794 35.3131 70.9738 35.1973 71.1416 35.0119C71.4292 34.6877 71.6809 33.9696 71.8966 32.8578C72.1124 31.7459 72.2921 30.0898 72.436 27.8893C72.6037 25.6656 72.7476 22.7702 72.8674 19.2031V18.6819ZM62.9798 15.0684H65.7124C65.5925 17.1068 65.4127 19.0757 65.173 20.975C64.9573 22.8513 64.5858 24.6464 64.0584 26.3605C63.5551 28.0514 62.812 29.6265 61.8292 31.0858C60.8704 32.5219 59.6 33.8306 58.018 35.0119C56.436 36.1701 54.4704 37.1661 52.1213 38C51.9536 37.6989 51.7139 37.3399 51.4022 36.9229C51.0906 36.506 50.791 36.1701 50.5034 35.9153C52.7326 35.1741 54.5783 34.2823 56.0404 33.24C57.5266 32.1976 58.7131 31.0163 59.6 29.696C60.4869 28.3525 61.1581 26.9048 61.6135 25.3529C62.0689 23.7778 62.3805 22.1332 62.5483 20.4191C62.7401 18.705 62.8839 16.9215 62.9798 15.0684ZM50 9.33553H81.6045V11.7677H50V9.33553ZM58.0899 6H60.7865V15.5896H58.0899V6ZM70.6742 6H73.3708V15.5896H70.6742V6ZM52.5169 18.6819H74.3056V21.1835H52.5169V18.6819ZM55.4292 23.9284L57.6225 24.9707C57.239 25.7582 56.7835 26.6153 56.2562 27.5418C55.7288 28.4452 55.1536 29.337 54.5303 30.2172C53.9311 31.0742 53.2839 31.8386 52.5888 32.5103L50.3596 31.1553C51.0547 30.5299 51.7139 29.8118 52.3371 29.0011C52.9843 28.1672 53.5715 27.3102 54.0989 26.43C54.6262 25.5498 55.0697 24.7159 55.4292 23.9284ZM75.8157 24.658L78.0809 23.8589C78.5843 24.6464 79.0876 25.5035 79.591 26.43C80.1183 27.3565 80.5858 28.2599 80.9933 29.1401C81.4247 30.0203 81.7603 30.7962 82 31.468L79.627 32.4408C79.4112 31.7459 79.0996 30.9584 78.6921 30.0782C78.2846 29.1748 77.8292 28.2483 77.3258 27.2986C76.8464 26.3489 76.3431 25.4687 75.8157 24.658Z" fill="#150101"/>
<path d="M29.2787 2H124C127.314 2 130 4.68629 130 8V38C130 41.3137 127.314 44 124 44H8C4.68629 44 2 41.3137 2 38V8C2 4.68629 4.68629 2 8 2H12.4918" stroke="url(#paint0_linear_6_7)" stroke-width="4"/>
<defs>
<linearGradient id="paint0_linear_6_7" x1="2" y1="23" x2="130" y2="23" gradientUnits="userSpaceOnUse">
<stop offset="0.293269" stop-color="#057AF6"/>
<stop offset="0.913462" stop-color="#034790"/>
</linearGradient>
</defs>
</svg>
