<svg width="136" height="49" viewBox="0 0 136 49" fill="none" xmlns="http://www.w3.org/2000/svg">
    <path d="M37.7257 28.396C37.7257 32.7891 34.0569 36.3506 29.5314 36.3506C25.0058 36.3506 21.337 32.7891 21.337 28.396H14.7815C14.7815 36.3037 21.3853 42.7143 29.5314 42.7143C37.6775 42.7143 44.2812 36.3037 44.2812 28.396C44.2812 20.4882 37.6775 14.0776 29.5314 14.0776V20.4413C34.0569 20.4413 37.7257 24.0027 37.7257 28.396Z" fill="#62FBC2" fill-opacity="0.89"/>
    <path opacity="0.5" d="M22.4752 6.28571C22.4752 12.3607 18.8486 17.2854 14.375 17.2854V26.0853C22.4275 26.0853 28.9554 17.2207 28.9554 6.28571H22.4752Z" fill="#10ED9B"/>
    <path d="M93.085 15.4261H123.493V18.2241H93.085V15.4261ZM106.853 6.28571H109.62V40.5714H106.853V6.28571ZM106.257 16.8438L108.534 17.7018C107.717 19.6418 106.759 21.5321 105.662 23.3726C104.564 25.2131 103.373 26.9666 102.089 28.633C100.804 30.2745 99.449 31.7793 98.0244 33.1472C96.6231 34.4903 95.1752 35.6344 93.6805 36.5795C93.5404 36.3308 93.3419 36.0696 93.085 35.796C92.8514 35.4976 92.6179 35.2116 92.3844 34.938C92.1508 34.6644 91.9289 34.4281 91.7188 34.2291C93.1667 33.3835 94.5913 32.3389 95.9926 31.0953C97.4172 29.8517 98.76 28.4589 100.022 26.9168C101.306 25.3499 102.474 23.7208 103.525 22.0295C104.599 20.3134 105.51 18.5848 106.257 16.8438ZM110.146 16.9184C110.916 18.5848 111.839 20.2636 112.913 21.9549C113.987 23.6213 115.167 25.2255 116.451 26.7676C117.759 28.3096 119.114 29.7025 120.515 30.946C121.916 32.1896 123.317 33.2343 124.719 34.0799C124.509 34.254 124.275 34.4903 124.018 34.7887C123.761 35.0623 123.516 35.3483 123.282 35.6468C123.049 35.9453 122.862 36.2313 122.722 36.5049C121.297 35.5349 119.884 34.3784 118.483 33.0353C117.082 31.6673 115.727 30.1626 114.42 28.5211C113.135 26.8546 111.932 25.1136 110.811 23.298C109.714 21.4575 108.744 19.617 107.904 17.7765L110.146 16.9184Z" fill="#2D5A27"/>
    <path d="M75.082 19.8734H78.0112C78.0112 19.8734 78.0112 19.9603 78.0112 20.134C78.0112 20.3078 78.0112 20.5063 78.0112 20.7297C78.0112 20.9282 77.9989 21.1019 77.9742 21.2508C77.8506 24.2786 77.7146 26.8472 77.5663 28.9567C77.4427 31.0414 77.2944 32.7538 77.1213 34.094C76.973 35.4342 76.7876 36.4889 76.5652 37.2583C76.3674 38.0028 76.1202 38.5612 75.8236 38.9335C75.4528 39.3802 75.0449 39.6904 74.6 39.8641C74.1551 40.0378 73.636 40.1619 73.0427 40.2364C72.4989 40.2612 71.782 40.2612 70.8921 40.2364C70.0022 40.2364 69.0876 40.2116 68.1483 40.1619C68.1236 39.8145 68.0247 39.3926 67.8517 38.8962C67.7034 38.4247 67.5303 38.0152 67.3326 37.6677C68.3461 37.7422 69.273 37.7794 70.1135 37.7794C70.9539 37.8042 71.5595 37.8167 71.9303 37.8167C72.2764 37.8415 72.5483 37.8167 72.7461 37.7422C72.9438 37.6926 73.1292 37.5685 73.3022 37.3699C73.5989 37.0225 73.8584 36.2531 74.0809 35.0619C74.3034 33.8706 74.4888 32.0962 74.6371 29.7385C74.8101 27.356 74.9584 24.2538 75.082 20.4318V19.8734ZM64.8854 16.0019H67.7034C67.5798 18.1858 67.3944 20.2953 67.1472 22.3304C66.9247 24.3406 66.5416 26.264 65.9977 28.1005C65.4786 29.9122 64.7124 31.5998 63.6989 33.1633C62.7101 34.702 61.4 36.1042 59.7685 37.3699C58.1371 38.6108 56.1101 39.678 53.6876 40.5714C53.5146 40.2488 53.2674 39.8641 52.9461 39.4174C52.6247 38.9707 52.3157 38.6108 52.0191 38.3378C54.318 37.5437 56.2213 36.5882 57.7292 35.4714C59.2618 34.3546 60.4854 33.0889 61.4 31.6743C62.3146 30.2348 63.0067 28.6837 63.4764 27.0209C63.9461 25.3333 64.2674 23.5713 64.4404 21.7348C64.6382 19.8983 64.7865 17.9873 64.8854 16.0019ZM51.5 9.85949H84.0921V12.4654H51.5V9.85949ZM59.8427 6.28571H62.6236V16.5603H59.8427V6.28571ZM72.8202 6.28571H75.6011V16.5603H72.8202V6.28571ZM54.0955 19.8734H76.5652V22.5538H54.0955V19.8734ZM57.0989 25.4947L59.3607 26.6115C58.9652 27.4553 58.4955 28.3735 57.9517 29.3662C57.4079 30.3341 56.8146 31.2896 56.1719 32.2327C55.5539 33.1509 54.8865 33.9699 54.1697 34.6896L51.8708 33.2378C52.5876 32.5677 53.2674 31.7984 53.9101 30.9297C54.5775 30.0363 55.1831 29.118 55.727 28.175C56.2708 27.2319 56.7281 26.3385 57.0989 25.4947ZM78.1225 26.2764L80.4584 25.4202C80.9775 26.264 81.4966 27.1823 82.0157 28.175C82.5595 29.1677 83.0416 30.1356 83.4618 31.0786C83.9067 32.0217 84.2528 32.8531 84.5 33.5728L82.0528 34.6152C81.8303 33.8706 81.509 33.0268 81.0888 32.0838C80.6685 31.1159 80.1989 30.1232 79.6798 29.1056C79.1854 28.0881 78.6663 27.145 78.1225 26.2764Z" fill="#2D5A27"/>
    <path d="M30.1311 2H128C131.314 2 134 4.68629 134 8V41C134 44.3137 131.314 47 128 47H8C4.68629 47 2 44.3137 2 41V8C2 4.68629 4.68629 2 8 2H12.8197" stroke="url(#paint0_linear_6_7)" stroke-width="4"/>
    <defs>
        <linearGradient id="paint0_linear_6_7" x1="2" y1="24.5" x2="134" y2="24.5" gradientUnits="userSpaceOnUse">
            <stop offset="0.293269" stop-color="#88D8C0"/>
            <stop offset="0.913462" stop-color="#A8E6CF"/>
        </linearGradient>
    </defs>
</svg>
